<?xml version="1.0" standalone="no"?>
<!DOCTYPE svg PUBLIC "-//W3C//DTD SVG 20010904//EN"
 "http://www.w3.org/TR/2001/REC-SVG-20010904/DTD/svg10.dtd">
<svg version="1.0" xmlns="http://www.w3.org/2000/svg"
 width="410.000000pt" height="199.000000pt" viewBox="0 0 410.000000 199.000000"
 preserveAspectRatio="xMidYMid meet">

<g transform="translate(0.000000,199.000000) scale(0.100000,-0.100000)"
fill="#000000" stroke="none">
<path d="M2350 1939 c-19 -5 -63 -11 -96 -13 -76 -5 -130 -36 -174 -101 -30
-44 -70 -62 -70 -31 0 8 -15 25 -32 38 -46 32 -132 34 -202 3 -28 -12 -65 -25
-82 -29 -18 -4 -44 -20 -58 -37 -15 -16 -30 -28 -34 -26 -53 31 -87 39 -132
34 -83 -10 -175 -88 -216 -184 -19 -43 -32 -49 -62 -26 -20 15 -29 33 -34 69
-5 38 -14 55 -38 75 -47 40 -98 52 -153 35 l-45 -13 -17 41 c-32 76 -36 81
-75 104 -54 31 -116 37 -159 15 -19 -10 -37 -25 -41 -33 -4 -8 -28 -58 -53
-110 -25 -52 -50 -117 -56 -144 -7 -27 -18 -61 -25 -75 -8 -14 -17 -52 -21
-84 -11 -90 -34 -110 -153 -137 -177 -40 -174 -38 -229 -96 -111 -117 -110
-248 4 -361 54 -52 73 -58 176 -49 105 9 154 33 240 119 37 37 72 65 76 62 5
-2 11 -30 13 -62 5 -53 8 -59 54 -100 27 -23 67 -49 89 -56 l40 -14 1 -59 c1
-68 20 -141 52 -202 27 -50 20 -66 -31 -76 -65 -12 -147 -123 -147 -198 0 -36
43 -138 58 -138 5 0 26 -13 46 -29 65 -52 222 -49 302 5 l34 24 38 -20 c44
-23 144 -37 175 -23 12 5 69 32 127 61 184 91 220 102 330 101 64 0 109 4 132
14 47 20 106 73 110 100 5 35 42 33 82 -5 25 -23 44 -33 67 -33 40 0 70 -39
94 -121 21 -74 54 -94 151 -94 116 0 194 55 230 162 23 70 67 147 104 183 30
28 33 29 149 31 105 1 125 4 174 27 30 15 76 31 103 38 27 6 63 15 79 20 17 4
64 13 105 19 102 14 195 49 237 87 40 38 42 38 120 18 31 -8 92 -15 135 -15
l77 0 50 74 c28 40 47 76 44 79 -5 6 23 89 49 143 5 11 10 47 11 80 2 58 1 59
-33 76 -19 9 -54 17 -77 18 -36 0 -44 4 -61 33 -12 17 -37 46 -56 64 -29 25
-36 38 -36 70 0 21 -6 45 -13 54 -22 30 -86 59 -128 59 -49 0 -82 -21 -128
-84 -33 -44 -35 -45 -78 -39 -76 10 -145 -13 -202 -68 -27 -27 -53 -49 -58
-49 -4 0 -14 9 -21 20 -8 13 -23 20 -42 20 -35 0 -130 -24 -160 -40 -12 -6
-40 -10 -63 -9 -53 4 -152 -18 -167 -36 -9 -10 -18 -11 -41 -3 -24 8 -41 6
-85 -11 -31 -11 -79 -21 -107 -21 -95 -1 -167 -52 -216 -153 -34 -70 -46 -76
-82 -37 -26 26 -30 37 -25 64 5 26 1 37 -21 59 -31 29 -91 57 -124 57 -34 0
-86 -38 -120 -86 -18 -26 -38 -44 -49 -44 -30 0 -131 -28 -146 -41 -8 -6 -31
-9 -51 -7 -21 3 -58 -1 -82 -9 -57 -17 -81 -10 -81 24 0 24 2 25 40 19 54 -8
144 18 168 49 11 14 22 44 26 67 4 24 11 60 17 81 9 33 13 37 43 37 50 0 136
29 186 62 50 34 77 37 131 14 41 -17 107 -6 148 26 26 20 56 24 66 8 4 -6 14
-9 23 -6 70 18 132 40 132 45 0 3 16 24 35 45 30 34 86 135 106 191 3 11 12
33 18 48 28 70 -3 127 -80 147 -24 6 -50 13 -56 15 -17 6 -17 79 -1 105 13 20
0 57 -30 89 -17 17 -95 23 -142 10z m76 -106 c-4 -16 -11 -53 -16 -83 -5 -30
-17 -98 -27 -150 -9 -52 -18 -117 -18 -145 0 -47 2 -50 27 -53 35 -4 72 46
119 158 23 58 37 80 48 77 25 -5 14 -52 -31 -142 -43 -87 -69 -119 -110 -141
-41 -21 -76 -17 -102 11 l-24 25 -16 -25 c-22 -34 -74 -65 -107 -65 -37 0 -71
31 -84 76 l-11 39 -32 -46 c-61 -90 -142 -139 -227 -138 -56 0 -91 19 -81 45
4 11 13 14 30 10 57 -14 116 125 124 291 4 90 2 104 -13 109 -25 10 -64 -16
-90 -61 -24 -42 -25 -48 -55 -220 -11 -60 -27 -148 -35 -195 -9 -47 -20 -109
-25 -139 -5 -29 -11 -56 -13 -58 -3 -2 -21 -7 -42 -10 -33 -5 -37 -4 -31 13 5
18 30 150 42 224 l6 35 -34 -37 c-58 -63 -111 -91 -177 -92 -67 -1 -86 11
-112 68 l-17 39 -22 -49 c-41 -93 -115 -143 -165 -110 -41 27 -51 82 -32 180
28 140 22 179 -27 188 -16 2 -22 -9 -37 -72 -48 -196 -104 -291 -185 -311 -51
-13 -53 -17 -56 -137 l-3 -82 -32 22 c-31 22 -32 25 -35 107 l-3 84 -70 18
c-38 9 -77 20 -85 23 -11 5 -22 -8 -39 -44 -50 -106 -144 -167 -240 -158 -69
7 -114 43 -131 103 -22 78 14 151 95 192 36 19 175 21 219 4 35 -14 37 -11 65
74 11 33 37 112 59 175 107 305 115 323 158 342 20 10 29 8 52 -9 27 -20 27
-22 26 -129 -1 -60 -6 -206 -12 -324 -6 -118 -9 -216 -8 -218 9 -9 86 33 103
56 23 31 62 140 89 250 17 68 18 74 3 83 -24 13 -31 54 -16 91 20 48 39 61 71
48 25 -9 26 -12 20 -59 l-6 -50 49 -30 c74 -46 79 -61 59 -178 -21 -126 -21
-182 -1 -190 42 -15 102 103 150 292 31 120 75 194 135 225 53 27 74 25 112
-9 30 -27 33 -34 32 -88 -1 -112 -59 -184 -167 -208 -50 -11 -52 -13 -55 -46
-4 -47 11 -84 43 -105 24 -15 28 -15 69 0 81 31 174 162 195 273 5 27 17 89
27 138 9 50 20 93 23 96 3 4 21 10 39 14 31 6 33 5 27 -14 -4 -15 2 -12 28 14
59 59 117 41 146 -44 24 -73 5 -227 -43 -335 -14 -31 -20 -56 -15 -56 6 0 34
24 63 53 63 65 114 164 126 243 12 86 47 170 86 210 29 28 42 34 78 34 30 0
48 -6 61 -20 25 -28 35 -25 35 9 0 30 9 36 63 40 15 1 17 -4 13 -26z m1278
-556 c16 -12 16 -18 6 -56 -6 -24 -10 -44 -8 -45 2 -1 26 -17 54 -34 71 -45
80 -70 60 -167 -18 -86 -21 -191 -6 -200 28 -17 77 56 121 180 12 35 23 50 36
50 23 0 20 -23 -12 -106 -51 -130 -104 -185 -171 -177 -22 2 -33 12 -48 42
-19 39 -19 42 -1 169 l18 130 -22 19 c-13 10 -29 18 -35 18 -7 0 -20 -34 -29
-75 -23 -98 -64 -197 -110 -266 -95 -143 -266 -181 -316 -69 l-18 41 -28 -48
c-48 -83 -96 -123 -148 -123 -27 0 -67 34 -67 57 0 10 -12 0 -31 -25 -67 -92
-163 -95 -185 -7 -6 25 -7 25 -41 -19 -19 -25 -59 -64 -89 -87 -42 -33 -55
-49 -60 -78 -24 -142 -69 -217 -136 -228 -54 -8 -84 3 -98 36 -24 60 8 113
110 182 27 19 52 41 54 49 20 68 21 66 -16 27 -25 -26 -44 -37 -64 -37 -30 0
-74 24 -74 40 0 5 -5 21 -11 37 l-11 28 -21 -41 c-43 -79 -82 -114 -128 -114
-66 0 -84 85 -54 253 16 90 13 102 -26 122 l-28 15 -11 -42 c-58 -231 -126
-370 -199 -408 -22 -11 -49 -20 -61 -20 -21 0 -53 27 -63 51 -4 11 -8 9 -20
-6 -48 -64 -79 -85 -125 -85 -78 0 -86 73 -37 335 9 44 18 101 21 127 6 43 9
47 41 53 19 3 37 4 39 2 4 -4 -10 -93 -42 -257 -23 -121 -28 -186 -14 -195 46
-29 137 129 160 278 4 29 13 86 20 129 l12 76 40 10 40 10 -6 -36 c-4 -20 -13
-73 -22 -117 -45 -239 -49 -292 -22 -309 49 -30 146 152 197 371 12 48 11 55
-8 82 -25 34 -26 52 -7 90 24 45 39 54 71 39 25 -11 26 -15 20 -63 -6 -48 -4
-52 18 -62 14 -6 41 -26 61 -43 42 -37 45 -65 21 -165 -17 -70 -19 -161 -5
-170 24 -15 51 9 79 68 36 77 68 169 76 222 15 90 48 166 89 204 36 34 110 36
136 4 22 -28 30 -29 30 -5 0 28 14 41 49 48 l32 7 -6 -39 c-13 -82 -57 -322
-70 -381 -7 -35 -11 -63 -8 -63 15 0 66 47 97 88 53 73 84 141 96 212 25 149
36 210 41 215 3 2 20 8 39 11 l33 7 -6 -39 c-3 -21 -13 -77 -22 -124 -9 -47
-20 -110 -25 -140 -5 -30 -11 -73 -15 -95 -8 -53 5 -73 39 -57 51 23 104 145
131 307 29 167 31 173 66 180 17 4 33 4 37 1 5 -6 -9 -89 -43 -256 -13 -63
-19 -130 -16 -177 1 -31 35 -30 67 2 36 36 92 159 114 251 36 151 88 234 160
255 69 21 130 -28 130 -103 0 -41 -31 -122 -59 -151 -34 -37 -55 -48 -116 -62
-49 -11 -50 -12 -53 -51 -2 -25 4 -50 18 -71 36 -59 115 -42 185 39 49 58 108
184 133 287 21 84 21 85 1 109 -26 34 -24 75 7 111 28 34 41 37 68 18z m-2224
-257 c0 -11 -4 -20 -8 -20 -5 0 -17 9 -27 20 -18 20 -17 20 8 20 20 0 27 -5
27 -20z m-199 -22 c51 -15 115 -71 135 -117 21 -47 22 -138 2 -176 -17 -32
-61 -76 -92 -92 -16 -9 -13 -13 28 -37 161 -94 133 -362 -43 -415 -58 -17
-110 -13 -176 14 -33 14 -65 25 -71 25 -6 0 -24 -15 -40 -33 -47 -53 -80 -69
-146 -70 -54 0 -62 3 -91 32 -27 27 -32 39 -32 81 0 40 5 54 30 80 44 46 94
57 158 36 29 -10 57 -20 64 -22 13 -6 26 32 43 126 6 36 18 97 25 135 8 39 19
102 26 140 18 103 51 160 101 178 12 4 21 0 28 -13 10 -19 4 -50 -10 -50 -12
0 -31 -54 -45 -126 -14 -76 -10 -81 52 -65 63 17 105 51 127 103 17 41 18 51
6 93 -35 126 -177 160 -307 72 -90 -61 -130 -202 -84 -296 19 -41 19 -44 3
-67 -9 -13 -22 -24 -29 -24 -14 0 -52 97 -60 155 -6 50 18 141 51 194 74 114
226 176 347 139z"/>
<path d="M2235 1754 c-42 -43 -74 -140 -82 -255 -9 -129 21 -163 84 -96 34 36
55 91 72 187 24 134 15 180 -35 180 -12 0 -30 -7 -39 -16z"/>
<path d="M722 1693 c-12 -30 -82 -236 -138 -401 -19 -56 -34 -106 -34 -111 0
-8 53 -27 131 -46 l25 -6 12 178 c19 289 25 413 19 413 -2 0 -9 -12 -15 -27z"/>
<path d="M1442 1582 c-27 -29 -55 -97 -66 -159 -4 -25 -2 -33 10 -33 29 0 80
27 95 51 21 32 42 110 37 140 -5 36 -43 37 -76 1z"/>
<path d="M273 1159 c-71 -17 -101 -78 -72 -143 16 -34 66 -50 116 -37 42 11
91 57 117 108 30 59 30 59 -89 77 -16 3 -49 0 -72 -5z"/>
<path d="M3373 1068 c-25 -27 -58 -106 -66 -160 -5 -30 -2 -38 10 -38 26 0 81
31 96 53 19 31 39 109 35 138 -4 34 -47 37 -75 7z"/>
<path d="M2480 878 c-31 -33 -60 -123 -72 -218 -17 -146 14 -196 80 -131 35
35 52 85 78 223 17 91 17 98 1 122 -22 32 -59 34 -87 4z"/>
<path d="M2426 319 c-45 -40 -60 -79 -35 -95 29 -18 99 66 99 119 0 26 -13 21
-64 -24z"/>
<path d="M1141 504 c-7 -38 -21 -107 -33 -153 -22 -95 -24 -91 52 -118 125
-45 225 25 225 157 -1 101 -62 162 -177 176 l-55 6 -12 -68z m152 -61 c42 -52
3 -138 -59 -131 -28 3 -29 6 -29 53 -1 95 43 134 88 78z"/>
<path d="M848 263 c-57 -36 -37 -103 30 -103 36 1 58 13 96 58 19 22 19 22
-16 36 -59 25 -82 27 -110 9z"/>
</g>
</svg>
